<svg xmlns="http://www.w3.org/2000/svg" xmlns:xlink="http://www.w3.org/1999/xlink" version="1.1" x="0px" y="0px" viewBox="0 0 100 125" enable-background="new 0 0 100 100" xml:space="preserve"><g transform="matrix( 1, 0, 0, 1, 0,0) "><g><g><path d="M92.646,87.838c0.574-0.561,0.854-1.204,0.84-1.932c0-0.785-0.279-1.449-0.84-1.996L67.09,58.355     c3.836-5.572,5.754-11.809,5.754-18.712c0-4.423-0.846-8.644-2.541-12.662c-1.637-4.033-4.045-7.616-7.223-10.752     c-3.15-3.107-6.721-5.5-10.71-7.181C48.338,7.383,44.097,6.55,39.645,6.55c-4.41,0-8.651,0.833-12.726,2.499     c-3.99,1.681-7.552,4.074-10.689,7.182c-3.135,3.108-5.537,6.692-7.203,10.751C7.376,31,6.55,35.221,6.55,39.645     c0,4.452,0.826,8.694,2.478,12.726c1.666,4.06,4.067,7.637,7.203,10.73V63.08c3.137,3.178,6.699,5.586,10.688,7.223     c4.06,1.693,8.302,2.541,12.726,2.541c6.832,0,13.062-1.924,18.689-5.774L83.91,92.646c0.52,0.561,1.162,0.84,1.934,0.84     c0.84,0,1.498-0.287,1.973-0.861L92.646,87.838 M58.523,20.788c0.006,0.008,0.013,0.015,0.021,0.021     c2.512,2.54,4.443,5.411,5.796,8.608l0.021,0.021c1.316,3.25,1.973,6.652,1.973,10.206c0,3.594-0.658,7.023-1.973,10.29     c-0.004,0.009-0.012,0.015-0.021,0.021c-1.355,3.219-3.294,6.075-5.816,8.569v0.021c-2.545,2.512-5.429,4.444-8.653,5.796     l-0.021,0.021c-3.236,1.314-6.638,1.973-10.206,1.973c-3.554,0-6.956-0.656-10.206-1.973l-0.021-0.021     c-3.198-1.353-6.068-3.285-8.608-5.796l-0.021-0.021c-2.511-2.499-4.443-5.391-5.796-8.674v0.021     c-1.342-3.246-2.014-6.654-2.016-10.227c0.001-3.557,0.673-6.959,2.016-10.205c1.352-3.21,3.283-6.086,5.796-8.63     c0.006-0.006,0.015-0.013,0.021-0.021c2.543-2.484,5.42-4.396,8.63-5.733c3.246-1.343,6.648-2.015,10.206-2.016     c3.572,0.002,6.981,0.674,10.227,2.016H49.85C53.085,16.393,55.976,18.303,58.523,20.788z"/></g></g></g><g transform="matrix( 1, 0, 0, 1, 0,0) "><g><g><path d="M42.584,24.693c-0.014-0.015-0.028-0.028-0.042-0.042c-1.162-1.148-2.562-1.722-4.2-1.722     c-1.624,0-3.017,0.582-4.179,1.744h-0.021c-1.148,1.162-1.723,2.562-1.723,4.2c0,0.793,0.133,1.528,0.399,2.205l-6.047,6.068     c-0.919-0.489-1.94-0.735-3.066-0.735c-1.805,0-3.345,0.644-4.62,1.932c-1.288,1.274-1.931,2.82-1.931,4.641     c0,1.82,0.643,3.375,1.931,4.663c1.274,1.26,2.814,1.889,4.62,1.889c1.834,0,3.388-0.63,4.663-1.889h0.021     c1.274-1.288,1.911-2.843,1.911-4.663c0-1.122-0.245-2.144-0.735-3.066l5.879-5.858c0.866,0.49,1.832,0.735,2.898,0.735     c1.159,0,2.202-0.288,3.129-0.862l5.986,5.985c-0.504,0.926-0.756,1.948-0.756,3.066c0,1.807,0.657,3.36,1.973,4.662     c1.274,1.261,2.821,1.89,4.641,1.89s3.366-0.63,4.641-1.89c1.274-1.288,1.911-2.842,1.911-4.662c0-1.11-0.237-2.117-0.715-3.024     l3.97-3.969c-0.229-1.526-0.606-3.017-1.133-4.473l-5.629,5.627c-0.913-0.49-1.928-0.735-3.045-0.735     c-1.12,0-2.143,0.246-3.065,0.735l-6.299-6.32c0.21-0.604,0.315-1.256,0.315-1.953C44.265,27.248,43.705,25.855,42.584,24.693      M56.57,42.983c0,0.91-0.315,1.687-0.945,2.331c-0.63,0.616-1.4,0.924-2.311,0.924s-1.688-0.315-2.33-0.945     c-0.658-0.644-0.987-1.414-0.987-2.31c0-0.91,0.329-1.687,0.987-2.331c0.658-0.643,1.435-0.966,2.33-0.966     c0.883,0,1.652,0.322,2.311,0.966C56.255,41.296,56.57,42.074,56.57,42.983 M36.495,26.982c0.504-0.518,1.12-0.778,1.849-0.778     c0.714,0,1.336,0.259,1.868,0.778l0.021,0.021c0.504,0.518,0.756,1.141,0.756,1.869s-0.246,1.351-0.735,1.869     c-0.015,0-0.028,0.007-0.042,0.021c-0.518,0.49-1.141,0.736-1.869,0.736c-0.728,0-1.344-0.246-1.849-0.736l-0.021-0.021     c-0.504-0.518-0.756-1.141-0.756-1.869c0-0.728,0.259-1.351,0.777-1.869L36.495,26.982 M21.417,45.314l-0.021-0.021     c-0.63-0.63-0.945-1.4-0.945-2.31c0-0.924,0.321-1.7,0.966-2.331c0.63-0.643,1.393-0.966,2.289-0.966     c0.91,0,1.694,0.322,2.352,0.966c0.63,0.644,0.945,1.421,0.945,2.331c0,0.91-0.315,1.681-0.945,2.31v0.021     c-0.644,0.616-1.428,0.924-2.352,0.924C22.811,46.238,22.047,45.93,21.417,45.314z"/></g></g></g><text x="0" y="115" fill="#000000" font-size="5px" font-weight="bold" font-family="'Helvetica Neue', Helvetica, Arial-Unicode, Arial, Sans-serif">Created by Matt Wasser</text><text x="0" y="120" fill="#000000" font-size="5px" font-weight="bold" font-family="'Helvetica Neue', Helvetica, Arial-Unicode, Arial, Sans-serif">from the Noun Project</text></svg>